<svg width="10" height="16" viewBox="0 0 10 16" fill="none" xmlns="http://www.w3.org/2000/svg">
    <path
        d="M5 15.125C3.73275 15.125 2.69719 14.9431 1.89331 14.5794C1.08944 14.2156 0.6875 13.7461 0.6875 13.1707C0.6875 12.9043 0.78775 12.6538 0.98825 12.4192C1.18875 12.1846 1.46594 11.9831 1.81981 11.8149L2.70537 12.6183C2.54475 12.6827 2.37594 12.763 2.19894 12.8591C2.02206 12.9553 1.90094 13.0568 1.83556 13.1634C1.95956 13.3875 2.32856 13.583 2.94256 13.7497C3.55644 13.9166 4.24106 14 4.99644 14C5.75169 14 6.43944 13.9166 7.05969 13.7497C7.67981 13.583 8.05194 13.3875 8.17606 13.1634C8.11256 13.049 7.98444 12.9438 7.79169 12.8476C7.59881 12.7515 7.41587 12.6712 7.24287 12.6067L8.11681 11.7918C8.50044 11.9678 8.79562 12.1731 9.00237 12.4078C9.20912 12.6424 9.3125 12.8956 9.3125 13.1675C9.3125 13.7439 8.91056 14.2142 8.10669 14.5785C7.30281 14.9428 6.26725 15.125 5 15.125ZM5.01875 11.4688C6.261 10.5274 7.19344 9.59495 7.81606 8.67145C8.43869 7.74783 8.75 6.83076 8.75 5.92026C8.75 4.62614 8.34494 3.64926 7.53481 2.98964C6.72469 2.32989 5.88094 2.00001 5.00356 2.00001C4.12619 2.00001 3.28125 2.33007 2.46875 2.9902C1.65625 3.6502 1.25 4.62757 1.25 5.92233C1.25 6.77283 1.55744 7.65483 2.17231 8.56833C2.78719 9.48183 3.736 10.4486 5.01875 11.4688ZM5 12.875C3.36337 11.6514 2.14175 10.463 1.33512 9.30989C0.528375 8.15689 0.125 7.02739 0.125 5.92139C0.125 5.08601 0.272375 4.35439 0.567125 3.72651C0.861875 3.09864 1.24237 2.57289 1.70862 2.14926C2.175 1.72576 2.69825 1.40751 3.27837 1.19451C3.85837 0.981512 4.43262 0.875012 5.00112 0.875012C5.56962 0.875012 6.1435 0.981512 6.72275 1.19451C7.30212 1.40751 7.825 1.72576 8.29137 2.14926C8.75762 2.57289 9.13812 3.09882 9.43287 3.72707C9.72762 4.35532 9.875 5.08639 9.875 5.92026C9.875 7.02639 9.47162 8.15607 8.66487 9.30932C7.85825 10.4626 6.63662 11.6511 5 12.875ZM5.00356 7.1707C5.37519 7.1707 5.69344 7.03945 5.95831 6.77695C6.22331 6.51445 6.35581 6.19495 6.35581 5.81845C6.35581 5.44208 6.22306 5.12145 5.95756 4.85657C5.69206 4.59157 5.37287 4.45908 5 4.45908C4.63075 4.45908 4.3125 4.59183 4.04525 4.85733C3.77787 5.12295 3.64419 5.44214 3.64419 5.81489C3.64419 6.19376 3.77787 6.51445 4.04525 6.77695C4.3125 7.03945 4.63194 7.1707 5.00356 7.1707Z"
        fill="#FE8C00" />
</svg>
