<svg width="14" height="16" viewBox="0 0 14 16" fill="none" xmlns="http://www.w3.org/2000/svg">
<path d="M1.98081 15.125C1.60681 15.125 1.28731 14.9926 1.02231 14.7277C0.757438 14.4627 0.625 14.1432 0.625 13.7692V5.23081C0.625 4.85681 0.757438 4.53731 1.02231 4.27231C1.28731 4.00744 1.60681 3.875 1.98081 3.875H3.625C3.625 2.9385 3.95338 2.14187 4.61013 1.48512C5.26688 0.828375 6.0635 0.5 7 0.5C7.9365 0.5 8.73313 0.828375 9.38988 1.48512C10.0466 2.14187 10.375 2.9385 10.375 3.875H12.0192C12.3932 3.875 12.7127 4.00744 12.9777 4.27231C13.2426 4.53731 13.375 4.85681 13.375 5.23081V13.7692C13.375 14.1432 13.2426 14.4627 12.9777 14.7277C12.7127 14.9926 12.3932 15.125 12.0192 15.125H1.98081ZM1.98081 14H12.0192C12.0769 14 12.1298 13.9759 12.1778 13.9278C12.2259 13.8798 12.25 13.8269 12.25 13.7692V5.23081C12.25 5.17306 12.2259 5.12019 12.1778 5.07219C12.1298 5.02406 12.0769 5 12.0192 5H1.98081C1.92306 5 1.87019 5.02406 1.82219 5.07219C1.77406 5.12019 1.75 5.17306 1.75 5.23081V13.7692C1.75 13.8269 1.77406 13.8798 1.82219 13.9278C1.87019 13.9759 1.92306 14 1.98081 14ZM7 9.125C7.9365 9.125 8.73313 8.79663 9.38988 8.13987C10.0466 7.48312 10.375 6.6865 10.375 5.75H9.25C9.25 6.375 9.03125 6.90625 8.59375 7.34375C8.15625 7.78125 7.625 8 7 8C6.375 8 5.84375 7.78125 5.40625 7.34375C4.96875 6.90625 4.75 6.375 4.75 5.75H3.625C3.625 6.6865 3.95338 7.48312 4.61013 8.13987C5.26688 8.79663 6.0635 9.125 7 9.125ZM4.75 3.875H9.25C9.25 3.25 9.03125 2.71875 8.59375 2.28125C8.15625 1.84375 7.625 1.625 7 1.625C6.375 1.625 5.84375 1.84375 5.40625 2.28125C4.96875 2.71875 4.75 3.25 4.75 3.875Z" fill="#FE8C00"/>
</svg>
