<svg width="14" height="9" viewBox="0 0 14 9" fill="none" xmlns="http://www.w3.org/2000/svg">
<path d="M8.6961 8.875C7.47411 8.875 6.43903 8.45092 5.59087 7.60275C4.7428 6.75468 4.31876 5.7196 4.31876 4.49752C4.31876 3.28467 4.7428 2.25271 5.59087 1.40162C6.43903 0.550541 7.47411 0.125 8.6961 0.125C9.90904 0.125 10.941 0.550541 11.792 1.40162C12.6431 2.25271 13.0686 3.28467 13.0686 4.49752C13.0686 5.7196 12.6431 6.75468 11.792 7.60275C10.941 8.45092 9.90904 8.875 8.6961 8.875ZM8.69362 8C9.66584 8 10.4922 7.65972 11.1728 6.97917C11.8533 6.29861 12.1936 5.47222 12.1936 4.5C12.1936 3.52778 11.8533 2.70139 11.1728 2.02083C10.4922 1.34028 9.66584 1 8.69362 1C7.72139 1 6.895 1.34028 6.21445 2.02083C5.53389 2.70139 5.19362 3.52778 5.19362 4.5C5.19362 5.47222 5.53389 6.29861 6.21445 6.97917C6.895 7.65972 7.72139 8 8.69362 8ZM10.0768 6.5214L10.7006 5.89781L9.13112 4.32835V2.25635H8.25612V4.68623L10.0768 6.5214ZM1.51424 2.60417V1.72917H3.73543V2.60417H1.51424ZM0.930908 4.9375V4.0625H3.73543V4.9375H0.930908ZM1.51424 7.27083V6.39583H3.73543V7.27083H1.51424Z" fill="#1C1B1F"/>
</svg>
