<svg width="28" height="34" viewBox="0 0 28 34" fill="none" xmlns="http://www.w3.org/2000/svg">
<path d="M13.9998 17C14.9165 17 15.7012 16.6736 16.354 16.0208C17.0068 15.368 17.3332 14.5833 17.3332 13.6666C17.3332 12.75 17.0068 11.9653 16.354 11.3125C15.7012 10.6597 14.9165 10.3333 13.9998 10.3333C13.0832 10.3333 12.2984 10.6597 11.6457 11.3125C10.9929 11.9653 10.6665 12.75 10.6665 13.6666C10.6665 14.5833 10.9929 15.368 11.6457 16.0208C12.2984 16.6736 13.0832 17 13.9998 17ZM13.9998 33.6666C9.52762 29.8611 6.18734 26.3264 3.979 23.0625C1.77067 19.7986 0.666504 16.7778 0.666504 14C0.666504 9.83331 2.00678 6.51387 4.68734 4.04165C7.36789 1.56942 10.4721 0.333313 13.9998 0.333313C17.5276 0.333313 20.6318 1.56942 23.3123 4.04165C25.9929 6.51387 27.3332 9.83331 27.3332 14C27.3332 16.7778 26.229 19.7986 24.0207 23.0625C21.8123 26.3264 18.4721 29.8611 13.9998 33.6666Z" fill="#FE8C00"/>
</svg>
