<svg width="160" height="160" viewBox="0 0 160 160" fill="none" xmlns="http://www.w3.org/2000/svg">
<g clip-path="url(#clip0_321_639)">
<path d="M36.4782 28.7081C36.7919 28.7067 37.1057 28.7053 37.429 28.7038C37.7763 28.7039 38.1236 28.7039 38.4815 28.704C38.8484 28.7029 39.2154 28.7017 39.5934 28.7005C40.6151 28.6977 41.6368 28.6962 42.6586 28.6954C43.7593 28.6942 44.86 28.6912 45.9607 28.6885C48.6203 28.6823 51.28 28.6791 53.9397 28.6764C55.1914 28.675 56.4432 28.6733 57.6949 28.6717C61.8546 28.6664 66.0143 28.6618 70.1741 28.6596C71.2539 28.659 72.3337 28.6584 73.4135 28.6578C73.8161 28.6575 73.8161 28.6575 74.2268 28.6573C78.5765 28.6547 82.9262 28.6468 87.2758 28.6366C91.7391 28.6263 96.2023 28.6207 100.665 28.6197C103.172 28.619 105.679 28.6163 108.186 28.6083C110.321 28.6015 112.456 28.599 114.59 28.602C115.68 28.6034 116.769 28.6028 117.858 28.5968C119.039 28.5913 120.219 28.5934 121.4 28.5976C121.745 28.5941 122.09 28.5907 122.446 28.5872C124.763 28.6068 124.763 28.6068 125.987 29.3455C126.959 30.4512 126.913 31.1355 126.911 32.5893C126.911 32.7905 126.911 32.9918 126.911 33.1991C126.91 33.8654 126.908 34.5315 126.906 35.1978C126.905 35.6593 126.905 36.1208 126.904 36.5823C126.903 37.7978 126.9 39.0134 126.897 40.2289C126.893 41.4689 126.892 42.7089 126.89 43.949C126.887 46.3827 126.882 48.8163 126.875 51.25C127.112 51.3422 127.349 51.4343 127.593 51.5293C128.621 51.95 129.55 52.4667 130.508 53.0273C130.86 53.2284 131.212 53.4294 131.575 53.6365C132.882 54.6798 133.317 55.7619 133.56 57.3791C133.654 58.3809 133.719 59.3813 133.776 60.3859C133.801 60.7708 133.826 61.1558 133.852 61.5524C133.92 62.6172 133.985 63.6821 134.048 64.7472C134.118 65.8976 134.192 67.0477 134.265 68.1978C134.408 70.4507 134.547 72.7039 134.684 74.9572C134.844 77.5867 135.009 80.2158 135.173 82.845C135.467 87.5425 135.757 92.2403 136.045 96.9382C136.324 101.484 136.605 106.03 136.89 110.576C136.907 110.855 136.925 111.134 136.943 111.422C136.96 111.701 136.978 111.98 136.996 112.267C137.32 117.454 137.642 122.642 137.963 127.829C138.076 129.656 138.19 131.482 138.304 133.309C138.444 135.543 138.582 137.777 138.717 140.011C138.787 141.148 138.857 142.285 138.928 143.422C139.099 146.134 139.254 148.847 139.375 151.562C139.391 151.908 139.406 152.253 139.422 152.608C139.46 153.57 139.486 154.531 139.506 155.494C139.517 155.773 139.528 156.051 139.539 156.338C139.542 156.594 139.544 156.85 139.546 157.114C139.551 157.333 139.556 157.553 139.561 157.779C139.26 158.845 138.667 159.322 137.813 160C136.879 160.196 136.879 160.196 135.819 160.197C135.414 160.201 135.009 160.205 134.592 160.209C134.143 160.206 133.694 160.202 133.246 160.198C132.768 160.2 132.291 160.203 131.814 160.206C130.502 160.212 129.191 160.209 127.879 160.204C126.464 160.201 125.05 160.206 123.635 160.21C120.864 160.217 118.093 160.216 115.322 160.211C113.07 160.208 110.818 160.207 108.567 160.209C108.246 160.209 107.926 160.21 107.596 160.21C106.946 160.21 106.295 160.211 105.645 160.211C99.5418 160.216 93.4391 160.211 87.3363 160.202C82.0975 160.195 76.8587 160.197 71.6199 160.204C65.5393 160.212 59.4586 160.215 53.378 160.211C52.7298 160.21 52.0817 160.21 51.4335 160.209C51.1146 160.209 50.7957 160.209 50.4671 160.208C48.2175 160.207 45.9679 160.209 43.7183 160.213C40.9775 160.217 38.2368 160.216 35.496 160.208C34.0971 160.204 32.6983 160.202 31.2993 160.207C30.0193 160.212 28.7396 160.209 27.4596 160.201C26.996 160.199 26.5323 160.2 26.0686 160.204C25.4395 160.209 24.8103 160.203 24.1812 160.197C23.8314 160.196 23.4816 160.196 23.1212 160.196C21.8797 159.935 21.4072 159.416 20.6251 158.438C20.4827 157.586 20.4444 156.955 20.485 156.11C20.491 155.868 20.497 155.626 20.5031 155.377C20.6237 151.635 20.9503 147.9 21.25 144.169C21.3423 143.013 21.4321 141.857 21.5222 140.701C21.6986 138.445 21.8772 136.189 22.0568 133.933C22.2027 132.099 22.3477 130.265 22.4921 128.431C22.5127 128.169 22.5334 127.907 22.5546 127.637C22.5965 127.104 22.6385 126.572 22.6804 126.039C23.0723 121.061 23.467 116.083 23.8625 111.105C24.2016 106.838 24.5384 102.571 24.8736 98.3041C25.2636 93.3381 25.655 88.3722 26.0485 83.4065C26.0905 82.8769 26.1324 82.3472 26.1744 81.8176C26.195 81.5571 26.2157 81.2965 26.2369 81.0281C26.382 79.196 26.5262 77.3638 26.67 75.5315C26.8452 73.2995 27.0219 71.0676 27.2004 68.8358C27.2913 67.6982 27.3817 66.5605 27.4702 65.4227C27.5664 64.1881 27.6656 62.9538 27.7652 61.7194C27.7925 61.3618 27.8199 61.0042 27.8481 60.6358C28.2567 55.6636 28.2567 55.6636 29.2347 54.3481C29.4164 54.2152 29.598 54.0823 29.7852 53.9453C30.0753 53.7278 30.0753 53.7278 30.3712 53.5059C32.3318 52.1875 32.3318 52.1875 33.1251 52.1875C33.1223 51.9208 33.1195 51.6542 33.1166 51.3794C33.0916 48.8644 33.0726 46.3494 33.0603 43.8343C33.0538 42.5412 33.0449 41.2483 33.0308 39.9554C33.0172 38.7072 33.0097 37.4591 33.0065 36.2109C33.0042 35.7351 32.9996 35.2593 32.9929 34.7835C32.9838 34.1161 32.9826 33.4492 32.9832 32.7818C32.9804 32.4022 32.9776 32.0226 32.9747 31.6315C33.1541 30.4303 33.5319 29.9195 34.3751 29.0625C35.1373 28.6814 35.6259 28.7098 36.4782 28.7081ZM45.6251 35C46.6777 36.0526 47.6623 36.984 48.8087 37.9102C49.2546 38.2727 49.2546 38.2727 49.7095 38.6426C50.3096 39.1226 50.9133 39.5981 51.5211 40.0684C51.938 40.3922 51.938 40.3922 52.3633 40.7227C52.6151 40.9148 52.8669 41.107 53.1263 41.3049C53.7501 41.875 53.7501 41.875 54.3751 43.125C54.4782 46.6312 54.5813 50.1375 54.6876 53.75C71.3938 53.75 88.1001 53.75 105.313 53.75C105.416 50.2437 105.519 46.7375 105.625 43.125C107.029 41.0189 107.029 41.0189 108.242 40.0977C108.511 39.8898 108.78 39.6819 109.058 39.4678C109.369 39.2309 109.68 38.994 110 38.75C110.595 38.2895 111.189 37.8274 111.782 37.3641C112.18 37.0534 112.578 36.7437 112.978 36.4353C113.449 36.0683 113.913 35.6913 114.375 35.3125C114.375 35.2094 114.375 35.1062 114.375 35C91.6876 35 69.0001 35 45.6251 35ZM39.6876 39.0625C39.6876 41.8469 39.6876 44.6312 39.6876 47.5C40.7877 47.06 41.4569 46.7885 42.3597 46.1304C42.552 45.9914 42.7444 45.8524 42.9426 45.7092C43.1381 45.5654 43.3337 45.4216 43.5352 45.2734C43.7368 45.1272 43.9384 44.981 44.1462 44.8303C44.6402 44.4717 45.1328 44.111 45.6251 43.75C44.4785 42.5539 43.2723 41.5278 41.9532 40.5273C41.7691 40.3853 41.585 40.2433 41.3953 40.097C40.6213 39.381 40.6213 39.381 39.6876 39.0625ZM118.574 40.1953C117.197 41.3087 115.8 42.3866 114.375 43.4375C115.585 44.465 116.843 45.2481 118.223 46.0156C118.912 46.4023 119.602 46.7891 120.313 47.1875C120.313 44.5062 120.313 41.825 120.313 39.0625C119.666 39.0625 119.042 39.8143 118.574 40.1953ZM111.875 50C111.875 51.2375 111.875 52.475 111.875 53.75C113.938 53.75 116 53.75 118.125 53.75C116.935 52.7978 115.765 51.9624 114.473 51.1719C114.291 51.0583 114.11 50.9447 113.923 50.8276C112.97 50.1981 112.97 50.1981 111.875 50ZM46.4136 50.9851C46.2042 51.1247 45.9947 51.2643 45.7789 51.4081C45.5605 51.5557 45.3422 51.7034 45.1172 51.8555C44.8965 52.0019 44.6757 52.1483 44.4483 52.2992C43.8967 52.6693 43.3538 53.0523 42.8126 53.4375C42.8126 53.5406 42.8126 53.6437 42.8126 53.75C44.5657 53.75 46.3188 53.75 48.1251 53.75C48.1251 52.6156 48.1251 51.4812 48.1251 50.3125C47.3381 50.3125 47.0645 50.5505 46.4136 50.9851ZM34.6876 60C33.8796 68.6161 33.8796 68.6161 33.156 77.2384C33.1035 77.8952 33.0511 78.552 32.9985 79.2088C32.8591 80.9549 32.7205 82.7011 32.5823 84.4473C32.4955 85.5429 32.4085 86.6385 32.3214 87.7341C32.0167 91.5683 31.7128 95.4025 31.4096 99.2368C31.1282 102.795 30.8451 106.353 30.5612 109.91C30.3159 112.986 30.0718 116.061 29.8287 119.136C29.6841 120.965 29.5391 122.793 29.3928 124.621C29.2556 126.334 29.1201 128.048 28.9857 129.762C28.9363 130.388 28.8865 131.014 28.836 131.639C28.5773 134.85 28.3565 138.026 28.4376 141.25C28.6611 141.254 28.8846 141.257 29.1149 141.261C31.1863 141.294 33.2575 141.33 35.3288 141.366C36.1106 141.38 36.8923 141.393 37.6741 141.405C38.7965 141.423 39.9189 141.443 41.0413 141.464C41.3919 141.469 41.7425 141.474 42.1038 141.479C42.429 141.486 42.7543 141.492 43.0894 141.498C43.5193 141.506 43.5193 141.506 43.9579 141.513C44.6876 141.563 44.6876 141.562 45.6251 141.875C45.9322 142.796 45.9795 143.415 45.9766 144.375C45.9778 144.781 45.9778 144.781 45.9791 145.195C45.9376 145.938 45.9376 145.938 45.6251 146.875C44.6811 147.19 44.0202 147.236 43.0321 147.252C42.6943 147.258 42.3565 147.264 42.0085 147.271C41.4621 147.278 41.4621 147.278 40.9046 147.286C40.5314 147.293 40.1581 147.299 39.7736 147.306C38.5796 147.327 37.3855 147.345 36.1915 147.363C35.3827 147.377 34.574 147.39 33.7653 147.404C31.7811 147.438 29.7968 147.469 27.8126 147.5C27.708 148.424 27.6039 149.349 27.5001 150.273C27.4702 150.536 27.4404 150.8 27.4097 151.071C27.3815 151.322 27.3533 151.574 27.3243 151.833C27.2981 152.066 27.2719 152.298 27.2449 152.538C27.1774 153.13 27.1774 153.13 27.1876 153.75C62.0438 153.75 96.9001 153.75 132.813 153.75C132.449 147.02 132.084 140.292 131.663 133.566C131.614 132.78 131.565 131.993 131.516 131.207C131.399 129.33 131.282 127.453 131.165 125.576C131.07 124.051 130.975 122.526 130.88 121.001C130.579 116.185 130.279 111.369 129.977 106.552C129.74 102.764 129.504 98.9747 129.269 95.1859C129.025 91.2725 128.781 87.3591 128.537 83.4457C128.4 81.2575 128.263 79.0693 128.127 76.881C128 74.8325 127.872 72.784 127.743 70.7355C127.696 69.9846 127.65 69.2336 127.603 68.4827C127.54 67.4584 127.475 66.4341 127.411 65.4099C127.393 65.1128 127.375 64.8158 127.356 64.5098C127.338 64.2339 127.321 63.958 127.302 63.6738C127.288 63.4378 127.273 63.2019 127.258 62.9588C127.168 61.9684 127.016 60.9845 126.875 60C96.4532 60 66.0313 60 34.6876 60Z" fill="#FE8C00" fill-opacity="0.4"/>
<path d="M52.7018 69.3197C53.0033 69.3157 53.3048 69.3117 53.6154 69.3075C54.1056 69.3041 54.1056 69.3041 54.6057 69.3005C54.941 69.298 55.2763 69.2955 55.6217 69.2929C56.3323 69.2886 57.0429 69.2852 57.7535 69.2828C58.84 69.2774 59.9262 69.2637 61.0126 69.2499C61.7025 69.2467 62.3924 69.2441 63.0823 69.242C63.4072 69.2365 63.7321 69.231 64.0669 69.2254C66.3271 69.2322 66.3271 69.2322 67.5417 69.9693C68.456 70.9972 68.5416 71.734 68.5291 73.1128C68.3867 74.1036 67.8896 74.631 67.1875 75.3125C66.249 75.7817 65.3779 75.654 64.3359 75.6445C63.9355 75.6417 63.5351 75.6389 63.1226 75.636C62.6597 75.6306 62.6597 75.6306 62.1875 75.625C62.1995 78.2279 62.2182 80.8307 62.245 83.4334C62.2572 84.6426 62.2673 85.8517 62.2722 87.0609C62.277 88.2321 62.2879 89.4032 62.3026 90.5744C62.3072 91.0168 62.3097 91.4592 62.31 91.9017C62.3167 97.4494 63.5213 103.059 67.4609 107.218C71.6401 110.959 76.6922 113.06 82.3499 112.753C87.2727 112.104 91.6352 109.923 95 106.25C97.5502 102.82 99.071 99.0312 99.1267 94.7469C99.1298 94.5394 99.1329 94.332 99.136 94.1182C99.1459 93.4368 99.1536 92.7554 99.1614 92.074C99.1678 91.5998 99.1744 91.1256 99.1811 90.6514C99.1983 89.4066 99.2137 88.1618 99.2288 86.917C99.2446 85.6455 99.2619 84.374 99.2792 83.1024C99.3127 80.61 99.3445 78.1175 99.375 75.625C98.9193 75.6379 98.9193 75.6379 98.4544 75.6511C98.0577 75.6578 97.6609 75.6645 97.2522 75.6714C96.6611 75.6843 96.6611 75.6843 96.0581 75.6975C95.0337 75.6273 94.6646 75.5992 93.9649 74.8828C93.1826 73.6661 92.9845 73.024 93.125 71.5625C94.1119 69.8191 94.1119 69.8191 95 69.375C95.4831 69.3406 95.9676 69.3253 96.4518 69.3197C96.7533 69.3157 97.0548 69.3117 97.3654 69.3075C97.6922 69.3052 98.019 69.3029 98.3557 69.3005C98.691 69.298 99.0263 69.2955 99.3717 69.2929C100.082 69.2886 100.793 69.2852 101.504 69.2828C102.59 69.2774 103.676 69.2637 104.763 69.2499C105.452 69.2467 106.142 69.2441 106.832 69.242C107.157 69.2365 107.482 69.231 107.817 69.2254C110.077 69.2322 110.077 69.2322 111.292 69.9693C112.206 70.9972 112.292 71.734 112.279 73.1128C112.137 74.1036 111.64 74.631 110.938 75.3125C109.999 75.7817 109.128 75.654 108.086 75.6445C107.686 75.6417 107.285 75.6389 106.873 75.636C106.41 75.6306 106.41 75.6306 105.938 75.625C105.941 76.0215 105.941 76.0215 105.944 76.426C105.963 78.9356 105.977 81.4451 105.986 83.9548C105.991 85.2445 105.998 86.5342 106.008 87.824C106.019 89.0721 106.024 90.3202 106.026 91.5684C106.028 92.0411 106.032 92.5137 106.037 92.9863C106.113 100.34 103.882 106.95 98.689 112.266C93.3714 117.48 87.1274 119.588 79.758 119.522C72.6669 119.319 66.6993 116.25 61.7969 111.211C57.824 106.611 55.5782 100.767 55.5895 94.676C55.5895 94.4684 55.5894 94.2608 55.5894 94.0469C55.5896 93.3689 55.592 92.691 55.5945 92.0129C55.5951 91.5396 55.5955 91.0663 55.5958 90.593C55.597 89.3534 55.6001 88.1138 55.6036 86.8741C55.6068 85.6067 55.6082 84.3393 55.6097 83.0719C55.6131 80.5896 55.6184 78.1073 55.625 75.625C55.1693 75.6379 55.1693 75.6379 54.7044 75.6511C54.3077 75.6578 53.9109 75.6645 53.5022 75.6714C52.9111 75.6843 52.9111 75.6843 52.3081 75.6975C51.2837 75.6273 50.9146 75.5992 50.2149 74.8828C49.4326 73.6661 49.2345 73.024 49.375 71.5625C50.3284 69.8781 50.7977 69.3417 52.7018 69.3197Z" fill="#FE8C00" fill-opacity="0.4"/>
<path d="M100.576 5.177C101.572 5.37723 102.126 5.83313 102.812 6.5625C103.371 7.67931 103.317 8.79866 103.125 10C102.593 11.2617 101.898 12.3963 101.172 13.5547C100.988 13.862 100.805 14.1694 100.616 14.4861C98.8245 17.4295 98.8245 17.4295 97.0897 18.0859C95.6547 18.1527 94.528 17.593 93.4569 16.6602C92.9575 15.5732 92.9337 14.5977 93.1249 13.4375C93.6115 12.259 94.2448 11.1882 94.9022 10.0977C95.068 9.80902 95.2338 9.52039 95.4046 9.22302C97.866 5.02795 97.866 5.02795 100.576 5.177Z" fill="#FE8C00" fill-opacity="0.4"/>
<path d="M60.0975 5.19531C60.3348 5.18 60.5721 5.1647 60.8165 5.14893C62.195 5.45125 62.8477 6.46439 63.5997 7.57843C64.1183 8.40807 64.6103 9.24924 65.0975 10.0977C65.2693 10.3827 65.4411 10.6677 65.6182 10.9613C66.6317 12.7177 67.1371 13.9052 66.8749 15.9375C66.2506 17.0861 65.781 17.4293 64.5897 17.9688C63.2163 18.155 62.3434 18.019 61.2499 17.1875C60.4861 16.3258 59.9409 15.3747 59.3749 14.375C59.2678 14.1939 59.1607 14.0128 59.0503 13.8261C58.6958 13.2251 58.3507 12.6194 58.0077 12.0117C57.8957 11.8203 57.7838 11.6288 57.6684 11.4316C56.8621 9.95247 56.7193 8.87032 56.8749 7.1875C57.7844 5.76259 58.4339 5.26801 60.0975 5.19531Z" fill="#FE8C00" fill-opacity="0.4"/>
<path d="M80.0001 -0.195312C80.2579 -0.199341 80.5157 -0.203369 80.7813 -0.20752C81.9282 0.0971294 82.3809 0.648601 83.1251 1.5625C83.2817 2.41402 83.3452 3.06758 83.3326 3.91602C83.3341 4.139 83.3356 4.36198 83.3371 4.59171C83.3382 5.06132 83.3353 5.53095 83.3288 6.00052C83.3204 6.71694 83.3287 7.43182 83.3387 8.14819C83.3377 8.60596 83.3357 9.06373 83.3326 9.52148C83.3357 9.73409 83.3389 9.9467 83.3422 10.1657C83.3129 11.3621 83.1449 11.8507 82.3797 12.7904C81.4907 13.4944 81.1164 13.6503 80.0001 13.6328C79.7423 13.6368 79.4844 13.6409 79.2188 13.645C78.0719 13.3404 77.6193 12.7889 76.8751 11.875C76.7184 11.0235 76.6549 10.3699 76.6675 9.52148C76.666 9.2985 76.6646 9.07552 76.663 8.84579C76.662 8.37618 76.6648 7.90655 76.6714 7.43698C76.6797 6.72056 76.6714 6.00568 76.6614 5.28931C76.6625 4.83154 76.6645 4.37377 76.6675 3.91602C76.6644 3.70341 76.6612 3.4908 76.658 3.27175C76.6872 2.07539 76.8553 1.58682 77.6205 0.647125C78.5095 -0.0569327 78.8837 -0.212755 80.0001 -0.195312Z" fill="#FE8C00" fill-opacity="0.4"/>
<path d="M58.75 141.25C59.7266 141.836 59.7266 141.836 60.3125 142.812C60.6215 144.383 60.5553 145.533 59.7266 146.914C58.3454 147.743 57.1957 147.809 55.625 147.5C54.6485 146.914 54.6485 146.914 54.0625 145.937C53.7535 144.367 53.8197 143.217 54.6485 141.836C56.0297 141.007 57.1793 140.941 58.75 141.25Z" fill="#FE8C00" fill-opacity="0.4"/>
</g>
<defs>
<clipPath id="clip0_321_639">
<rect width="160" height="160" fill="white"/>
</clipPath>
</defs>
</svg>
