<svg width="16" height="14" viewBox="0 0 16 14" fill="none" xmlns="http://www.w3.org/2000/svg">
<path d="M1.58974 13.25C1.16877 13.25 0.812449 13.1042 0.520783 12.8125C0.229116 12.5208 0.0832825 12.1645 0.0832825 11.7435V2.25646C0.0832825 1.83549 0.229116 1.47917 0.520783 1.1875C0.812449 0.895833 1.16877 0.75 1.58974 0.75H14.4102C14.8311 0.75 15.1875 0.895833 15.4791 1.1875C15.7708 1.47917 15.9166 1.83549 15.9166 2.25646V11.7435C15.9166 12.1645 15.7708 12.5208 15.4791 12.8125C15.1875 13.1042 14.8311 13.25 14.4102 13.25H1.58974ZM7.99995 7.46479L1.33328 3.20187V11.7435C1.33328 11.8184 1.35731 11.8799 1.40537 11.9279C1.45342 11.976 1.51488 12 1.58974 12H14.4102C14.485 12 14.5465 11.976 14.5945 11.9279C14.6426 11.8799 14.6666 11.8184 14.6666 11.7435V3.20187L7.99995 7.46479ZM7.99995 6.16667L14.5385 2H1.46141L7.99995 6.16667ZM1.33328 3.20187V2V11.7435C1.33328 11.8184 1.35731 11.8799 1.40537 11.9279C1.45342 11.976 1.51488 12 1.58974 12H1.33328V3.20187Z" fill="#FE8C00"/>
</svg>
