<svg width="13" height="18" viewBox="0 0 13 18" fill="none" xmlns="http://www.w3.org/2000/svg">
<path d="M2.08974 17.75C1.67419 17.75 1.31919 17.6028 1.02474 17.3085C0.730435 17.0141 0.583282 16.6591 0.583282 16.2435V1.75646C0.583282 1.33549 0.729116 0.979167 1.02078 0.6875C1.31245 0.395833 1.66877 0.25 2.08974 0.25H9.94224C10.3578 0.25 10.7127 0.397153 11.007 0.691458C11.3015 0.985903 11.4487 1.3409 11.4487 1.75646V4.38792C11.6773 4.44764 11.868 4.56701 12.0208 4.74604C12.1736 4.92493 12.25 5.13299 12.25 5.37021V6.94063C12.25 7.17785 12.1736 7.38597 12.0208 7.565C11.868 7.74389 11.6773 7.86326 11.4487 7.92313V16.2435C11.4487 16.6591 11.3015 17.0141 11.007 17.3085C10.7127 17.6028 10.3578 17.75 9.94224 17.75H2.08974ZM2.08974 16.5H9.94224C10.017 16.5 10.0784 16.476 10.1266 16.4279C10.1747 16.3799 10.1987 16.3184 10.1987 16.2435V1.75646C10.1987 1.6816 10.1747 1.62014 10.1266 1.57208C10.0784 1.52403 10.017 1.5 9.94224 1.5H2.08974C2.01488 1.5 1.95342 1.52403 1.90537 1.57208C1.85731 1.62014 1.83328 1.6816 1.83328 1.75646V16.2435C1.83328 16.3184 1.85731 16.3799 1.90537 16.4279C1.95342 16.476 2.01488 16.5 2.08974 16.5ZM6.01599 15.346C6.22544 15.346 6.40064 15.2756 6.54162 15.1346C6.68259 14.9936 6.75308 14.8184 6.75308 14.609C6.75308 14.3995 6.68259 14.2243 6.54162 14.0833C6.40064 13.9424 6.22544 13.8719 6.01599 13.8719C5.80655 13.8719 5.63134 13.9424 5.49037 14.0833C5.34939 14.2243 5.27891 14.3995 5.27891 14.609C5.27891 14.8184 5.34939 14.9936 5.49037 15.1346C5.63134 15.2756 5.80655 15.346 6.01599 15.346Z" fill="#FE8C00"/>
</svg>
