<svg width="16" height="16" viewBox="0 0 16 16" fill="none" xmlns="http://www.w3.org/2000/svg">
<path d="M2.42318 15.0833C2.0022 15.0833 1.64588 14.9375 1.35422 14.6458C1.06255 14.3541 0.916718 13.9978 0.916718 13.5768V2.42308C0.916718 2.00211 1.06255 1.64579 1.35422 1.35413C1.64588 1.06246 2.0022 0.916626 2.42318 0.916626H8.00797V2.16663H2.42318C2.35901 2.16663 2.30026 2.19336 2.24693 2.24683C2.19345 2.30017 2.16672 2.35892 2.16672 2.42308V13.5768C2.16672 13.641 2.19345 13.6998 2.24693 13.7531C2.30026 13.8066 2.35901 13.8333 2.42318 13.8333H8.00797V15.0833H2.42318ZM11.5257 11.5577L10.6603 10.6537L12.6892 8.62496H5.58026V7.37496H12.6892L10.6603 5.34621L11.5257 4.44225L15.0834 7.99996L11.5257 11.5577Z" fill="#FF4040"/>
</svg>
