<svg width="17" height="16" viewBox="0 0 17 16" fill="none" xmlns="http://www.w3.org/2000/svg">
<path d="M3.7085 11.9582H9.12516V10.7082H3.7085V11.9582ZM12.0418 11.9582H13.2918V4.0415H12.0418V11.9582ZM3.7085 8.62484H9.12516V7.37484H3.7085V8.62484ZM3.7085 5.2915H9.12516V4.0415H3.7085V5.2915ZM2.08995 15.0832C1.66898 15.0832 1.31266 14.9373 1.021 14.6457C0.729329 14.354 0.583496 13.9977 0.583496 13.5767V2.42296C0.583496 2.00199 0.729329 1.64567 1.021 1.354C1.31266 1.06234 1.66898 0.916504 2.08995 0.916504H14.9104C15.3313 0.916504 15.6877 1.06234 15.9793 1.354C16.271 1.64567 16.4168 2.00199 16.4168 2.42296V13.5767C16.4168 13.9977 16.271 14.354 15.9793 14.6457C15.6877 14.9373 15.3313 15.0832 14.9104 15.0832H2.08995ZM2.08995 13.8332H14.9104C14.9745 13.8332 15.0333 13.8064 15.0866 13.753C15.1401 13.6996 15.1668 13.6409 15.1668 13.5767V2.42296C15.1668 2.3588 15.1401 2.30005 15.0866 2.24671C15.0333 2.19324 14.9745 2.1665 14.9104 2.1665H2.08995C2.02579 2.1665 1.96704 2.19324 1.9137 2.24671C1.86023 2.30005 1.8335 2.3588 1.8335 2.42296V13.5767C1.8335 13.6409 1.86023 13.6996 1.9137 13.753C1.96704 13.8064 2.02579 13.8332 2.08995 13.8332Z" fill="#808080"/>
</svg>
