<svg width="14" height="15" viewBox="0 0 14 15" fill="none" xmlns="http://www.w3.org/2000/svg">
    <path
        d="M5.46146 11.7275H6.23083V8.65065C6.55125 8.65065 6.82368 8.5385 7.04813 8.31419C7.27243 8.08975 7.38458 7.81732 7.38458 7.4969V5.18919H6.61542V7.4969H6.23083V5.18919H5.46146V7.4969H5.07688V5.18919H4.30771V7.4969C4.30771 7.81732 4.41986 8.08975 4.64417 8.31419C4.86861 8.5385 5.14104 8.65065 5.46146 8.65065V11.7275ZM8.53854 11.7275H9.30771V5.18919C8.88674 5.18919 8.52507 5.33982 8.22271 5.64107C7.92035 5.94232 7.76917 6.30447 7.76917 6.72752V9.03523H8.53854V11.7275ZM0.75 14.0834V4.70836L7 0.0129395L13.25 4.70836V14.0834H0.75ZM2 12.8334H12V5.33336L7 1.58336L2 5.33336V12.8334Z"
        fill="#808080" />
</svg>
