<svg width="14" height="16" viewBox="0 0 14 16" fill="none" xmlns="http://www.w3.org/2000/svg">
<path d="M2.25646 15.9166C1.83549 15.9166 1.47917 15.7708 1.1875 15.4791C0.895833 15.1875 0.75 14.8312 0.75 14.4102V4.9231C0.75 4.50213 0.895833 4.14581 1.1875 3.85415C1.47917 3.56248 1.83549 3.41665 2.25646 3.41665H3.875V3.20831C3.875 2.34512 4.18 1.60845 4.79 0.998313C5.40014 0.388313 6.13681 0.083313 7 0.083313C7.86319 0.083313 8.59986 0.388313 9.21 0.998313C9.82 1.60845 10.125 2.34512 10.125 3.20831V3.41665H11.7435C12.1645 3.41665 12.5208 3.56248 12.8125 3.85415C13.1042 4.14581 13.25 4.50213 13.25 4.9231V14.4102C13.25 14.8312 13.1042 15.1875 12.8125 15.4791C12.5208 15.7708 12.1645 15.9166 11.7435 15.9166H2.25646ZM5.125 3.41665H8.875V3.20831C8.875 2.68595 8.69312 2.24283 8.32937 1.87894C7.96562 1.51519 7.5225 1.33331 7 1.33331C6.4775 1.33331 6.03438 1.51519 5.67063 1.87894C5.30688 2.24283 5.125 2.68595 5.125 3.20831V3.41665ZM9.5 7.16665C9.67736 7.16665 9.82583 7.10679 9.94542 6.98706C10.0651 6.86748 10.125 6.71901 10.125 6.54165V4.66665H8.875V6.54165C8.875 6.71901 8.93486 6.86748 9.05458 6.98706C9.17417 7.10679 9.32264 7.16665 9.5 7.16665ZM4.5 7.16665C4.67736 7.16665 4.82583 7.10679 4.94542 6.98706C5.06514 6.86748 5.125 6.71901 5.125 6.54165V4.66665H3.875V6.54165C3.875 6.71901 3.93486 6.86748 4.05458 6.98706C4.17417 7.10679 4.32264 7.16665 4.5 7.16665Z" fill="#FE8C00"/>
</svg>
