<svg width="17" height="16" viewBox="0 0 17 16" fill="none" xmlns="http://www.w3.org/2000/svg">
<path d="M3.70837 11.9583H9.12504V10.7083H3.70837V11.9583ZM12.0417 11.9583H13.2917V4.04163H12.0417V11.9583ZM3.70837 8.62496H9.12504V7.37496H3.70837V8.62496ZM3.70837 5.29163H9.12504V4.04163H3.70837V5.29163ZM2.08983 15.0833C1.66886 15.0833 1.31254 14.9375 1.02087 14.6458C0.729207 14.3541 0.583374 13.9978 0.583374 13.5768V2.42308C0.583374 2.00211 0.729207 1.64579 1.02087 1.35413C1.31254 1.06246 1.66886 0.916626 2.08983 0.916626H14.9102C15.3312 0.916626 15.6875 1.06246 15.9792 1.35413C16.2709 1.64579 16.4167 2.00211 16.4167 2.42308V13.5768C16.4167 13.9978 16.2709 14.3541 15.9792 14.6458C15.6875 14.9375 15.3312 15.0833 14.9102 15.0833H2.08983Z" fill="#FE8C00"/>
</svg>
