<svg width="15" height="16" viewBox="0 0 15 16" fill="none" xmlns="http://www.w3.org/2000/svg">
<path d="M1.6665 13.035C2.4165 12.2989 3.28803 11.7191 4.28109 11.2955C5.27414 10.8719 6.34706 10.66 7.49984 10.66C8.65262 10.66 9.72553 10.8719 10.7186 11.2955C11.7116 11.7191 12.5832 12.2989 13.3332 13.035V2.42296C13.3332 2.3588 13.3064 2.30005 13.253 2.24671C13.1996 2.19324 13.1409 2.1665 13.0767 2.1665H1.92296C1.8588 2.1665 1.80005 2.19324 1.74671 2.24671C1.69324 2.30005 1.6665 2.3588 1.6665 2.42296V13.035ZM7.49984 8.86525C8.25192 8.86525 8.89137 8.60192 9.41817 8.07525C9.94484 7.54845 10.2082 6.909 10.2082 6.15692C10.2082 5.40484 9.94484 4.76539 9.41817 4.23859C8.89137 3.71192 8.25192 3.44859 7.49984 3.44859C6.74775 3.44859 6.10831 3.71192 5.5815 4.23859C5.05484 4.76539 4.7915 5.40484 4.7915 6.15692C4.7915 6.909 5.05484 7.54845 5.5815 8.07525C6.10831 8.60192 6.74775 8.86525 7.49984 8.86525ZM1.92296 15.0832C1.50199 15.0832 1.14567 14.9373 0.854004 14.6457C0.562337 14.354 0.416504 13.9977 0.416504 13.5767V2.42296C0.416504 2.00199 0.562337 1.64567 0.854004 1.354C1.14567 1.06234 1.50199 0.916504 1.92296 0.916504H13.0767C13.4977 0.916504 13.854 1.06234 14.1457 1.354C14.4373 1.64567 14.5832 2.00199 14.5832 2.42296V13.5767C14.5832 13.9977 14.4373 14.354 14.1457 14.6457C13.854 14.9373 13.4977 15.0832 13.0767 15.0832H1.92296ZM2.64734 13.8332H12.3523C11.6451 13.1847 10.8741 12.7021 10.0392 12.3853C9.20421 12.0684 8.35775 11.91 7.49984 11.91C6.65262 11.91 5.80456 12.0684 4.95567 12.3853C4.10692 12.7021 3.33748 13.1847 2.64734 13.8332ZM7.49984 7.61525C7.09914 7.61525 6.75595 7.47234 6.47025 7.1865C6.18442 6.90081 6.0415 6.55761 6.0415 6.15692C6.0415 5.75623 6.18442 5.41303 6.47025 5.12734C6.75595 4.8415 7.09914 4.69859 7.49984 4.69859C7.90053 4.69859 8.24373 4.8415 8.52942 5.12734C8.81525 5.41303 8.95817 5.75623 8.95817 6.15692C8.95817 6.55761 8.81525 6.90081 8.52942 7.1865C8.24373 7.47234 7.90053 7.61525 7.49984 7.61525Z" fill="#808080"/>
</svg>
