<svg width="15" height="16" viewBox="0 0 15 16" fill="none" xmlns="http://www.w3.org/2000/svg">
<path d="M7.49996 8.86544C8.25204 8.86544 8.89149 8.6021 9.41829 8.07544C9.94496 7.54863 10.2083 6.90919 10.2083 6.1571C10.2083 5.40502 9.94496 4.76558 9.41829 4.23877C8.89149 3.7121 8.25204 3.44877 7.49996 3.44877C6.74788 3.44877 6.10843 3.7121 5.58163 4.23877C5.05496 4.76558 4.79163 5.40502 4.79163 6.1571C4.79163 6.90919 5.05496 7.54863 5.58163 8.07544C6.10843 8.6021 6.74788 8.86544 7.49996 8.86544ZM1.92308 15.0834C1.50211 15.0834 1.14579 14.9375 0.854126 14.6459C0.562459 14.3542 0.416626 13.9979 0.416626 13.5769V2.42315C0.416626 2.00217 0.562459 1.64585 0.854126 1.35419C1.14579 1.06252 1.50211 0.916687 1.92308 0.916687H13.0768C13.4978 0.916687 13.8541 1.06252 14.1458 1.35419C14.4375 1.64585 14.5833 2.00217 14.5833 2.42315V13.5769C14.5833 13.9979 14.4375 14.3542 14.1458 14.6459C13.8541 14.9375 13.4978 15.0834 13.0768 15.0834H1.92308ZM1.84288 13.8334H13.157C13.2158 13.7757 13.2559 13.6467 13.2773 13.4463C13.2986 13.246 13.3173 13.109 13.3333 13.0352C12.5833 12.2991 11.7118 11.7193 10.7187 11.2956C9.72565 10.872 8.65274 10.6602 7.49996 10.6602C6.34718 10.6602 5.27427 10.872 4.28121 11.2956C3.28815 11.7193 2.41663 12.2991 1.66663 13.0352C1.6826 13.109 1.70128 13.246 1.72267 13.4463C1.74406 13.6467 1.78413 13.7757 1.84288 13.8334Z" fill="#FE8C00"/>
</svg>
